# xmcd CD database file
# Generated: mié nov 13 14:41:46 2002 by KSCD
# 
# Track frame offsets:
#       150
#       24040
#       46616
#       57054
#       77829
#       92064
#       108485
#       122546
#       137347
#       165194
#       177650
#       209447
#       226110
#       236879
#
# Disc length: 3506 seconds
#
# Revision: 1
# Processed by: cddbd v1.4PL0 Copyright (c) Steve Scherf et al.
# Submitted via: Kscd 1.3.3
#
DISCID=a30db00e
DTITLE=The Blues Collection - Various Artists
DYEAR=1900
DGENRE=
TTITLE0=I'm Knocking Out Your Theeth Tonight
TTITLE1=The Thrill Is Gone
TTITLE2=You Got Me Movin
TTITLE3=Looking Back Over My Day
TTITLE4=Cherry Red
TTITLE5=Going To Chicago
TTITLE6=Deprit And Betty
TTITLE7=Blues In My Hart
TTITLE8=Payin' The Cost To Be The Boss
TTITLE9=Clean Head Blues
TTITLE10=Lonesome Road Blues
TTITLE11=We Are Cooking
TTITLE12=Your Poodle Dog
TTITLE13=Guess Who
EXTD=
EXTT0=
EXTT1=
EXTT2=
EXTT3=
EXTT4=
EXTT5=
EXTT6=
EXTT7=
EXTT8=
EXTT9=
EXTT10=
EXTT11=
EXTT12=
EXTT13=
PLAYORDER=
